ffmpeg started on 2025-06-23 at 21:06:35
Report written to "D:\Convert\FFMetrics\reports\psnr_report-6.txt"
Log level: 32
Command line:
ffmpeg -hide_banner -nostdin -i "G:\\\xc0\xed\xe8\xec\xe5\\[\xd2\xee\xef-4]\\\xcc\xee\xe6\xe5\xf2, \xff \xe2\xf1\xf2\xf0\xe5\xf7\xf3 \xf2\xe5\xe1\xff \xe2 \xef\xee\xe4\xe7\xe5\xec\xe5\xeb\xfc\xe5\\\xd2\xc2-2\\Danmachi_Sword_Oratoria_[07]_[AniLibria_TV]_[HDTV-Rip]_HEVC.mkv" -i "G:\\\xc0\xed\xe8\xec\xe5\\[\xd2\xee\xef-4]\\\xcc\xee\xe6\xe5\xf2, \xff \xe2\xf1\xf2\xf0\xe5\xf7\xf3 \xf2\xe5\xe1\xff \xe2 \xef\xee\xe4\xe7\xe5\xec\xe5\xeb\xfc\xe5\\\xd2\xc2-2\\Danmachi_Sword_Oratoria_[07]_[AniLibria_TV]_[HDTV-Rip].mkv" -lavfi "[0:v]settb=AVTB,setpts=PTS-STARTPTS,format=pix_fmts=yuv420p10,fps=24000/1001,scale=1280:720:flags=bicubic[main];[1:v]settb=AVTB,setpts=PTS-STARTPTS,format=pix_fmts=yuv420p,fps=24000/1001,scale=1280:720:flags=bicubic[ref];[main][ref]psnr=eof_action=endall:stats_file='D\\:/Convert/FFMetrics/logs/psnr_logfile-6.txt'" -f null -
Input #0, matroska,webm, from 'G:\Аниме\[Топ-4]\Может, я встречу тебя в подземелье\ТВ-2\Danmachi_Sword_Oratoria_[07]_[AniLibria_TV]_[HDTV-Rip]_HEVC.mkv':
  Metadata:
    ENCODER         : Lavf61.7.100
  Duration: 00:23:59.81, start: -0.021000, bitrate: 743 kb/s
  Stream #0:0(jpn): Video: hevc (Main 10), yuv420p10le(tv, bt709, progressive), 1280x720 [SAR 1:1 DAR 16:9], 23.98 fps, 23.98 tbr, 1k tbn (default) (forced)
      Metadata:
        title           : Original
        ENCODER         : Lavc61.19.100 libx265
        BPS             : 545205
        DURATION        : 00:23:59.771708333
        NUMBER_OF_FRAMES: 34520
        NUMBER_OF_BYTES : 98121363
        _STATISTICS_WRITING_APP: mkvpropedit v66.0.0 ('Josie') 64-bit
        _STATISTICS_WRITING_DATE_UTC: 2025-06-23 10:52:53
        _STATISTICS_TAGS: BPS DURATION NUMBER_OF_FRAMES NUMBER_OF_BYTES
  Stream #0:1(rus): Audio: aac (LC), 48000 Hz, stereo, fltp (default) (forced)
      Metadata:
        title           : Leeannushka & Sharon
        ENCODER         : Lavc61.19.100 aac
        BPS             : 193957
        DURATION        : 00:23:59.786000000
        NUMBER_OF_FRAMES: 67491
        NUMBER_OF_BYTES : 34907137
        _STATISTICS_WRITING_APP: mkvpropedit v66.0.0 ('Josie') 64-bit
        _STATISTICS_WRITING_DATE_UTC: 2025-06-23 10:52:53
        _STATISTICS_TAGS: BPS DURATION NUMBER_OF_FRAMES NUMBER_OF_BYTES
  Stream #0:2(rus): Subtitle: ass (ssa) (default) (forced)
      Metadata:
        title           : Надписи
        BPS             : 66
        DURATION        : 00:23:10.030000000
        NUMBER_OF_FRAMES: 39
        NUMBER_OF_BYTES : 11595
        _STATISTICS_WRITING_APP: mkvpropedit v66.0.0 ('Josie') 64-bit
        _STATISTICS_WRITING_DATE_UTC: 2025-06-23 10:52:53
        _STATISTICS_TAGS: BPS DURATION NUMBER_OF_FRAMES NUMBER_OF_BYTES
  Stream #0:3(rus): Subtitle: ass (ssa)
      Metadata:
        title           : Субтитры
        BPS             : 209
        DURATION        : 00:23:43.800000000
        NUMBER_OF_FRAMES: 360
        NUMBER_OF_BYTES : 37294
        _STATISTICS_WRITING_APP: mkvpropedit v66.0.0 ('Josie') 64-bit
        _STATISTICS_WRITING_DATE_UTC: 2025-06-23 10:52:53
        _STATISTICS_TAGS: BPS DURATION NUMBER_OF_FRAMES NUMBER_OF_BYTES
Input #1, matroska,webm, from 'G:\Аниме\[Топ-4]\Может, я встречу тебя в подземелье\ТВ-2\Danmachi_Sword_Oratoria_[07]_[AniLibria_TV]_[HDTV-Rip].mkv':
  Metadata:
    encoder         : libebml v1.4.2 + libmatroska v1.6.4
    creation_time   : 2025-01-14T16:52:00.000000Z
  Duration: 00:23:59.79, start: 0.000000, bitrate: 2529 kb/s
  Stream #1:0(jpn): Video: h264 (High), yuv420p(tv, bt709, progressive), 1280x720 [SAR 1:1 DAR 16:9], 23.98 fps, 23.98 tbr, 1k tbn (default) (forced)
      Metadata:
        title           : Original
        BPS             : 2332427
        DURATION        : 00:23:59.772000000
        NUMBER_OF_FRAMES: 34520
        NUMBER_OF_BYTES : 419770388
        _STATISTICS_WRITING_APP: mkvmerge v66.0.0 ('Josie') 64-bit
        _STATISTICS_WRITING_DATE_UTC: 2025-01-14 16:52:00
        _STATISTICS_TAGS: BPS DURATION NUMBER_OF_FRAMES NUMBER_OF_BYTES
  Stream #1:1(rus): Audio: aac (LC), 48000 Hz, stereo, fltp (default) (forced)
      Metadata:
        title           : Leeannushka & Sharon
        BPS             : 192095
        DURATION        : 00:23:59.786000000
        NUMBER_OF_FRAMES: 67490
        NUMBER_OF_BYTES : 34571987
        _STATISTICS_WRITING_APP: mkvmerge v66.0.0 ('Josie') 64-bit
        _STATISTICS_WRITING_DATE_UTC: 2025-01-14 16:52:00
        _STATISTICS_TAGS: BPS DURATION NUMBER_OF_FRAMES NUMBER_OF_BYTES
  Stream #1:2(rus): Subtitle: ass (ssa) (default) (forced)
      Metadata:
        title           : Надписи
        BPS             : 66
        DURATION        : 00:23:10.030000000
        NUMBER_OF_FRAMES: 39
        NUMBER_OF_BYTES : 11595
        _STATISTICS_WRITING_APP: mkvmerge v66.0.0 ('Josie') 64-bit
        _STATISTICS_WRITING_DATE_UTC: 2025-01-14 16:52:00
        _STATISTICS_TAGS: BPS DURATION NUMBER_OF_FRAMES NUMBER_OF_BYTES
  Stream #1:3(rus): Subtitle: ass (ssa)
      Metadata:
        title           : Субтитры
        BPS             : 209
        DURATION        : 00:23:43.800000000
        NUMBER_OF_FRAMES: 360
        NUMBER_OF_BYTES : 37294
        _STATISTICS_WRITING_APP: mkvmerge v66.0.0 ('Josie') 64-bit
        _STATISTICS_WRITING_DATE_UTC: 2025-01-14 16:52:00
        _STATISTICS_TAGS: BPS DURATION NUMBER_OF_FRAMES NUMBER_OF_BYTES
  Stream #1:4: Attachment: ttf
      Metadata:
        filename        : 9808.ttf
        mimetype        : application/x-truetype-font
  Stream #1:5: Attachment: ttf
      Metadata:
        filename        : 10119.ttf
        mimetype        : application/x-truetype-font
  Stream #1:6: Attachment: ttf
      Metadata:
        filename        : 10323.ttf
        mimetype        : application/x-truetype-font
Stream mapping:
  Stream #0:0 (hevc) -> settb:default
  Stream #1:0 (h264) -> settb:default
  psnr:default -> Stream #0:0 (wrapped_avframe)
  Stream #0:1 -> #0:1 (aac (native) -> pcm_s16le (native))
Output #0, null, to 'pipe:':
  Metadata:
    encoder         : Lavf61.7.100
  Stream #0:0: Video: wrapped_avframe, yuv420p10le(tv, bt709, progressive), 1280x720 [SAR 1:1 DAR 16:9], q=2-31, 200 kb/s, 23.98 fps, 23.98 tbn
      Metadata:
        encoder         : Lavc61.19.100 wrapped_avframe
  Stream #0:1(rus): Audio: pcm_s16le, 48000 Hz, stereo, s16, 1536 kb/s (default) (forced)
      Metadata:
        title           : Leeannushka & Sharon
        _STATISTICS_TAGS: BPS DURATION NUMBER_OF_FRAMES NUMBER_OF_BYTES
        BPS             : 193957
        DURATION        : 00:23:59.786000000
        NUMBER_OF_FRAMES: 67491
        NUMBER_OF_BYTES : 34907137
        _STATISTICS_WRITING_APP: mkvpropedit v66.0.0 ('Josie') 64-bit
        _STATISTICS_WRITING_DATE_UTC: 2025-06-23 10:52:53
        encoder         : Lavc61.19.100 pcm_s16le
frame=  509 fps=0.0 q=-0.0 size=N/A time=00:00:21.22 bitrate=N/A speed=41.1x    frame=  963 fps=924 q=-0.0 size=N/A time=00:00:40.16 bitrate=N/A speed=38.6x    frame= 1361 fps=877 q=-0.0 size=N/A time=00:00:56.76 bitrate=N/A speed=36.6x    frame= 1771 fps=859 q=-0.0 size=N/A time=00:01:13.86 bitrate=N/A speed=35.8x    frame= 2183 fps=843 q=-0.0 size=N/A time=00:01:31.04 bitrate=N/A speed=35.2x    frame= 2559 fps=825 q=-0.0 size=N/A time=00:01:46.73 bitrate=N/A speed=34.4x    frame= 2913 fps=807 q=-0.0 size=N/A time=00:02:01.49 bitrate=N/A speed=33.6x    frame= 3428 fps=831 q=-0.0 size=N/A time=00:02:22.97 bitrate=N/A speed=34.7x    frame= 3817 fps=822 q=-0.0 size=N/A time=00:02:39.20 bitrate=N/A speed=34.3x    frame= 4399 fps=853 q=-0.0 size=N/A time=00:03:03.47 bitrate=N/A speed=35.6x    frame= 4992 fps=879 q=-0.0 size=N/A time=00:03:28.20 bitrate=N/A speed=36.6x    frame= 5513 fps=890 q=-0.0 size=N/A time=00:03:49.93 bitrate=N/A speed=37.1x    frame= 6065 fps=905 q=-0.0 size=N/A time=00:04:12.96 bitrate=N/A speed=37.7x    frame= 6660 fps=921 q=-0.0 size=N/A time=00:04:37.77 bitrate=N/A speed=38.4x    frame= 7165 fps=926 q=-0.0 size=N/A time=00:04:58.84 bitrate=N/A speed=38.6x    frame= 7537 fps=914 q=-0.0 size=N/A time=00:05:14.35 bitrate=N/A speed=38.1x    frame= 8190 fps=933 q=-0.0 size=N/A time=00:05:41.59 bitrate=N/A speed=38.9x    frame= 8781 fps=946 q=-0.0 size=N/A time=00:06:06.24 bitrate=N/A speed=39.4x    frame= 9398 fps=959 q=-0.0 size=N/A time=00:06:31.97 bitrate=N/A speed=  40x    frame=10083 fps=977 q=-0.0 size=N/A time=00:07:00.54 bitrate=N/A speed=40.7x    frame=10769 fps=994 q=-0.0 size=N/A time=00:07:29.15 bitrate=N/A speed=41.5x    frame=11340 fps=1000 q=-0.0 size=N/A time=00:07:52.97 bitrate=N/A speed=41.7x    frame=11905 fps=1003 q=-0.0 size=N/A time=00:08:16.53 bitrate=N/A speed=41.8x    frame=12400 fps=1002 q=-0.0 size=N/A time=00:08:37.18 bitrate=N/A speed=41.8x    frame=13042 fps=1011 q=-0.0 size=N/A time=00:09:03.96 bitrate=N/A speed=42.2x    frame=13713 fps=1023 q=-0.0 size=N/A time=00:09:31.94 bitrate=N/A speed=42.7x    frame=14330 fps=1030 q=-0.0 size=N/A time=00:09:57.68 bitrate=N/A speed=42.9x    frame=14932 fps=1034 q=-0.0 size=N/A time=00:10:22.78 bitrate=N/A speed=43.1x    frame=15413 fps=1031 q=-0.0 size=N/A time=00:10:42.85 bitrate=N/A speed=  43x    frame=15949 fps=1030 q=-0.0 size=N/A time=00:11:05.20 bitrate=N/A speed=  43x    frame=16449 fps=1029 q=-0.0 size=N/A time=00:11:26.06 bitrate=N/A speed=42.9x    frame=16986 fps=1030 q=-0.0 size=N/A time=00:11:48.45 bitrate=N/A speed=42.9x    frame=17532 fps=1030 q=-0.0 size=N/A time=00:12:11.23 bitrate=N/A speed=  43x    frame=18165 fps=1036 q=-0.0 size=N/A time=00:12:37.63 bitrate=N/A speed=43.2x    frame=18541 fps=1027 q=-0.0 size=N/A time=00:12:53.31 bitrate=N/A speed=42.9x    frame=18991 fps=1023 q=-0.0 size=N/A time=00:13:12.08 bitrate=N/A speed=42.7x    frame=19557 fps=1025 q=-0.0 size=N/A time=00:13:35.68 bitrate=N/A speed=42.8x    frame=20036 fps=1022 q=-0.0 size=N/A time=00:13:55.66 bitrate=N/A speed=42.6x    frame=20534 fps=1021 q=-0.0 size=N/A time=00:14:16.43 bitrate=N/A speed=42.6x    frame=21048 fps=1020 q=-0.0 size=N/A time=00:14:37.87 bitrate=N/A speed=42.5x    frame=21580 fps=1021 q=-0.0 size=N/A time=00:15:00.06 bitrate=N/A speed=42.6x    frame=22045 fps=1017 q=-0.0 size=N/A time=00:15:19.46 bitrate=N/A speed=42.4x    frame=22484 fps=1013 q=-0.0 size=N/A time=00:15:37.77 bitrate=N/A speed=42.3x    frame=22958 fps=1011 q=-0.0 size=N/A time=00:15:57.53 bitrate=N/A speed=42.2x    frame=23419 fps=1009 q=-0.0 size=N/A time=00:16:16.76 bitrate=N/A speed=42.1x    frame=23948 fps=1009 q=-0.0 size=N/A time=00:16:38.83 bitrate=N/A speed=42.1x    frame=24426 fps=1007 q=-0.0 size=N/A time=00:16:58.76 bitrate=N/A speed=  42x    frame=25067 fps=1012 q=-0.0 size=N/A time=00:17:25.50 bitrate=N/A speed=42.2x    frame=25646 fps=1015 q=-0.0 size=N/A time=00:17:49.65 bitrate=N/A speed=42.3x    frame=26260 fps=1018 q=-0.0 size=N/A time=00:18:15.26 bitrate=N/A speed=42.4x    frame=26809 fps=1019 q=-0.0 size=N/A time=00:18:38.15 bitrate=N/A speed=42.5x    frame=27338 fps=1019 q=-0.0 size=N/A time=00:19:00.22 bitrate=N/A speed=42.5x    frame=27872 fps=1019 q=-0.0 size=N/A time=00:19:22.49 bitrate=N/A speed=42.5x    frame=28357 fps=1018 q=-0.0 size=N/A time=00:19:42.72 bitrate=N/A speed=42.4x    frame=28803 fps=1015 q=-0.0 size=N/A time=00:20:01.32 bitrate=N/A speed=42.3x    frame=29324 fps=1015 q=-0.0 size=N/A time=00:20:23.05 bitrate=N/A speed=42.3x    frame=29891 fps=1016 q=-0.0 size=N/A time=00:20:46.70 bitrate=N/A speed=42.4x    frame=30546 fps=1020 q=-0.0 size=N/A time=00:21:14.02 bitrate=N/A speed=42.6x    frame=31173 fps=1024 q=-0.0 size=N/A time=00:21:40.17 bitrate=N/A speed=42.7x    frame=31787 fps=1027 q=-0.0 size=N/A time=00:22:05.78 bitrate=N/A speed=42.8x    frame=32326 fps=1027 q=-0.0 size=N/A time=00:22:28.26 bitrate=N/A speed=42.8x    frame=32841 fps=1027 q=-0.0 size=N/A time=00:22:49.74 bitrate=N/A speed=42.8x    frame=33326 fps=1025 q=-0.0 size=N/A time=00:23:09.97 bitrate=N/A speed=42.8x    frame=33802 fps=1024 q=-0.0 size=N/A time=00:23:29.82 bitrate=N/A speed=42.7x    frame=34256 fps=1021 q=-0.0 size=N/A time=00:23:48.76 bitrate=N/A speed=42.6x    [Parsed_psnr_10 @ 0000025f290714c0] PSNR y:46.761330 u:49.449930 v:49.311467 average:47.471972 min:39.680299 max:62.269154
[out#0/null @ 0000025f266bc080] video:14833KiB audio:269964KiB subtitle:0KiB other streams:0KiB global headers:0KiB muxing overhead: unknown
frame=34520 fps=1023 q=-0.0 Lsize=N/A time=00:23:59.77 bitrate=N/A speed=42.7x    
